<svg xmlns="http://www.w3.org/2000/svg" version="1.1" xmlns:xlink="http://www.w3.org/1999/xlink" xmlns:svgjs="http://svgjs.com/svgjs" width="256" height="256" x="0" y="0" viewBox="0 0 24 24" style="enable-background:new 0 0 512 512" xml:space="preserve"><g><path d="M24 12a12 12 0 1 0-12 12 12.013 12.013 0 0 0 12-12ZM9.465 17.707l-3.586-3.586a3 3 0 0 1 0-4.243l3.586-3.585.025-.024a1 1 0 1 1 1.389 1.438L7.586 11 18 10.993a1 1 0 0 1 0 2L7.587 13l3.292 3.293a1 1 0 1 1-1.414 1.414Z" fill="#ea5455" data-original="#000000"></path></g></svg>