<svg xmlns="http://www.w3.org/2000/svg" version="1.1" xmlns:xlink="http://www.w3.org/1999/xlink" xmlns:svgjs="http://svgjs.com/svgjs" width="256" height="256" x="0" y="0" viewBox="0 0 24 24" style="enable-background:new 0 0 512 512" xml:space="preserve"><g><path d="M12 0C5.383 0 0 5.383 0 12s5.383 12 12 12 12-5.383 12-12S18.617 0 12 0Zm0 18H9a1 1 0 1 1 0-2h3c1.103 0 2-.897 2-2s-.897-2-2-2h-2a1 1 0 1 1 0-2h2a1.001 1.001 0 0 0 0-2H9a1 1 0 1 1 0-2h3c1.654 0 3 1.346 3 3 0 .68-.236 1.301-.619 1.805A3.984 3.984 0 0 1 16 14c0 2.206-1.794 4-4 4Z" fill="#ea5455" data-original="#000000"></path></g></svg>